<?xml version="1.0" encoding="UTF-8"?>
<svg version="1.1" xmlns="http://www.w3.org/2000/svg" width="279" height="325">
<path d="M0 0 C2.83932012 1.55925324 5.62627907 3.18523835 8.40625 4.84790039 C9.37626953 5.41573242 10.34628906 5.98356445 11.34570312 6.56860352 C13.72625822 7.96410133 16.10010386 9.3698152 18.46875 10.78540039 C18.46875 11.44540039 18.46875 12.10540039 18.46875 12.78540039 C19.18264893 12.88957275 19.89654785 12.99374512 20.63208008 13.10107422 C23.80391609 13.86625679 26.05185306 15.07169144 28.85546875 16.73461914 C29.87705078 17.3359668 30.89863281 17.93731445 31.95117188 18.55688477 C33.00884766 19.18916992 34.06652344 19.82145508 35.15625 20.47290039 C36.19458984 21.08584961 37.23292969 21.69879883 38.30273438 22.33032227 C40.36534775 23.54978585 42.42401993 24.77594246 44.47851562 26.0090332 C46.44730343 27.17860375 48.43032928 28.32458296 50.42773438 29.44458008 C51.33201172 29.95794922 52.23628906 30.47131836 53.16796875 31.00024414 C53.97194092 31.4461792 54.77591309 31.89211426 55.60424805 32.3515625 C57.80593691 34.04470362 58.19785045 34.94793063 58.59375 37.66040039 C58.5525 38.69165039 58.51125 39.72290039 58.46875 40.78540039 C59.005 40.43477539 59.54125 40.08415039 60.09375 39.72290039 C63.3715931 38.42901496 65.03705882 38.92747759 68.46875 39.78540039 C71.36097382 41.13977469 74.09509932 42.72505329 76.84375 44.34790039 C77.57980469 44.77264648 78.31585938 45.19739258 79.07421875 45.63500977 C80.87714699 46.6769618 82.67362053 47.73006894 84.46875 48.78540039 C84.46875 49.44540039 84.46875 50.10540039 84.46875 50.78540039 C85.17056396 50.88127441 85.87237793 50.97714844 86.59545898 51.07592773 C89.99980278 51.91652788 92.43910691 53.32575356 95.44140625 55.13696289 C96.00516464 55.47408295 96.56892303 55.811203 97.14976501 56.15853882 C98.94778725 57.23568757 100.73960078 58.32269109 102.53125 59.41040039 C103.70726891 60.11811901 104.88369822 60.82515615 106.06054688 61.53149414 C107.8091644 62.5811324 109.55731521 63.63147572 111.30337524 64.68536377 C116.2469669 67.66696885 121.23366885 70.56893562 126.23608398 73.45092773 C128.46875 74.78540039 128.46875 74.78540039 129.46875 75.78540039 C129.58961108 78.09473854 129.63905931 80.40782624 129.66162109 82.72021484 C129.66979858 83.44545349 129.67797607 84.17069214 129.68640137 84.91790771 C129.71129995 87.32815717 129.72778316 89.73834754 129.7421875 92.14868164 C129.74751118 92.97021414 129.75283485 93.79174664 129.75831985 94.63817406 C129.78507164 98.98696333 129.80443944 103.3357237 129.81884766 107.68457031 C129.8354952 112.18082694 129.88026727 116.6763505 129.9312191 121.1723299 C129.96485013 124.62528846 129.97642053 128.07807226 129.98207474 131.53117943 C129.98879946 133.18862697 130.00405327 134.84606253 130.02796555 136.50335121 C130.05953187 138.82364453 130.05966785 141.14195133 130.05224609 143.46240234 C130.0768541 144.49043221 130.0768541 144.49043221 130.10195923 145.53923035 C130.07675171 147.46382141 130.07675171 147.46382141 129.46875 150.78540039 C126.93228149 153.24308777 126.93228149 153.24308777 124.46875 154.78540039 C125.27647858 155.29541595 126.08420715 155.80543152 126.91641235 156.3309021 C130.31133169 159.5956832 130.16352345 161.40246507 130.30615234 166.05737305 C130.33418945 166.78316559 130.36222656 167.50895813 130.39111328 168.25674438 C130.47422902 170.6544768 130.51812295 173.0505924 130.5546875 175.44946289 C130.57132069 176.27178783 130.58795387 177.09411278 130.60509109 177.94135666 C130.69171894 182.29711226 130.74803291 186.65205676 130.77978516 191.00854492 C130.81066323 194.60226507 130.89397285 198.18861694 131.02587891 201.7800293 C132.06838931 230.70780871 132.06838931 230.70780871 127.82177734 237.36871338 C123.93358576 241.06952364 119.64726345 242.87440653 114.50476074 244.21377563 C111.65380087 245.01420326 109.25527852 246.40740145 106.71875 247.91040039 C105.86796875 248.36672852 105.0171875 248.82305664 104.140625 249.29321289 C99.89449977 251.66458692 95.79604444 254.27042184 91.66796875 256.84008789 C87.88004911 259.14336503 84.01645618 261.25773687 80.09765625 263.32836914 C77.37646084 264.83655025 74.81921548 266.51671263 72.21875 268.22290039 C68.76415752 270.33190439 67.73020367 270.78955045 63.53125 270.72290039 C61.50264795 270.10189976 59.48140527 269.45628548 57.46875 268.78540039 C57.695625 269.34227539 57.9225 269.89915039 58.15625 270.47290039 C58.46875 272.78540039 58.46875 272.78540039 57.59375 275.22290039 C54.56392711 278.87651034 50.81498476 280.93510117 46.46875 282.78540039 C45.47875 282.78540039 44.48875 282.78540039 43.46875 282.78540039 C43.46875 283.44540039 43.46875 284.10540039 43.46875 284.78540039 C22.85633564 296.61723049 22.85633564 296.61723049 16.46875 300.03540039 C11.28245416 302.82355304 6.30282228 305.92466977 1.31640625 309.05102539 C0.37667969 309.62336914 -0.56304687 310.19571289 -1.53125 310.78540039 C-2.55412109 311.42735352 -2.55412109 311.42735352 -3.59765625 312.08227539 C-6.25743487 313.04946762 -7.80783692 312.50071545 -10.53125 311.78540039 C-12.88378906 310.6496582 -12.88378906 310.6496582 -15.296875 309.23852539 C-16.18761719 308.72290039 -17.07835937 308.20727539 -17.99609375 307.67602539 C-18.91519531 307.13461914 -19.83429688 306.59321289 -20.78125 306.03540039 C-22.59867092 304.97761475 -24.41637681 303.92031858 -26.234375 302.86352539 C-27.12471436 302.34363037 -28.01505371 301.82373535 -28.93237305 301.28808594 C-31.33824654 299.8969961 -33.75843486 298.53854429 -36.19140625 297.19555664 C-40.41370427 294.86417481 -44.57075047 292.43348644 -48.71875 289.97290039 C-56.28200611 285.50366522 -63.89033594 281.12049902 -71.53125 276.78540039 C-71.53125 273.81540039 -71.53125 270.84540039 -71.53125 267.78540039 C-72.3975 268.30102539 -73.26375 268.81665039 -74.15625 269.34790039 C-78.10748229 271.03083266 -79.43253267 270.82761702 -83.53125 269.78540039 C-86.6875 268.21899414 -86.6875 268.21899414 -90.03125 266.22290039 C-91.27719504 265.48827311 -92.5232929 264.75390498 -93.76953125 264.01977539 C-94.39811035 263.64530273 -95.02668945 263.27083008 -95.67431641 262.88500977 C-98.50156182 261.21081658 -101.36103487 259.59439408 -104.21875 257.97290039 C-106.65781582 256.57979642 -109.09470958 255.18291585 -111.53125 253.78540039 C-112.27600586 253.3582373 -113.02076172 252.93107422 -113.78808594 252.4909668 C-142.06633693 236.25031346 -142.06633693 236.25031346 -144.53125 233.78540039 C-144.65734338 231.50681978 -144.71212871 229.22427958 -144.73999023 226.94238281 C-144.74977402 226.22689774 -144.7595578 225.51141266 -144.76963806 224.77424622 C-144.79965555 222.39647297 -144.82099527 220.01875624 -144.83984375 217.64086914 C-144.84641558 216.83036921 -144.8529874 216.01986927 -144.85975838 215.18480873 C-144.89238058 210.89438243 -144.91682379 206.60398127 -144.9362793 202.31347656 C-144.95409728 198.75809673 -144.98891946 195.20350936 -145.03881836 191.6484375 C-145.09892958 187.36132684 -145.12974248 183.0749514 -145.13945198 178.78743935 C-145.14802431 177.15229052 -145.16688637 175.51716225 -145.1961956 173.88225365 C-145.23502671 171.59282852 -145.23615781 169.30627665 -145.22827148 167.01660156 C-145.23857895 165.71389816 -145.24888641 164.41119476 -145.25950623 163.0690155 C-144.53125 159.78540039 -144.53125 159.78540039 -141.48768616 157.33345032 C-140.51206223 156.82259384 -139.53643829 156.31173737 -138.53125 155.78540039 C-139.40099826 153.53021034 -139.40099826 153.53021034 -142.043396 152.60305786 C-144.53125 150.78540039 -144.53125 150.78540039 -145.23345947 147.63790894 C-145.28466949 145.69007004 -145.28466949 145.69007004 -145.33691406 143.70288086 C-145.36173859 142.98538162 -145.38656311 142.26788239 -145.41213989 141.52864075 C-145.48520098 139.15304607 -145.51924514 136.77912164 -145.546875 134.40258789 C-145.5756485 132.74691747 -145.60443697 131.09124731 -145.63323975 129.43557739 C-145.68578353 125.96030946 -145.71499465 122.48561901 -145.73242188 119.01000977 C-145.75978262 114.57179284 -145.87969497 110.14130269 -146.02228165 105.70550346 C-146.11582727 102.28216045 -146.14146077 98.86064308 -146.14910126 95.43613052 C-146.16416197 93.80198234 -146.20407511 92.16785556 -146.27002716 90.53496933 C-146.46821418 85.24842632 -146.37652431 80.78667367 -144.53125 75.78540039 C-140.44242023 71.41698027 -135.03240311 68.92040923 -129.53125 66.78540039 C-128.54125 66.78540039 -127.55125 66.78540039 -126.53125 66.78540039 C-126.53125 66.12540039 -126.53125 65.46540039 -126.53125 64.78540039 C-126.04881836 64.51912842 -125.56638672 64.25285645 -125.06933594 63.97851562 C-113.68162428 57.69988796 -113.68162428 57.69988796 -102.40625 51.22290039 C-101.48328125 50.68665039 -100.5603125 50.15040039 -99.609375 49.59790039 C-97.20744481 48.18356586 -94.82913182 46.74215803 -92.453125 45.28540039 C-91.02119794 44.43062264 -89.58890869 43.57645132 -88.15625 42.72290039 C-87.48964355 42.30387451 -86.82303711 41.88484863 -86.13623047 41.453125 C-82.75204125 39.4647542 -81.08993574 38.67014704 -77.1796875 39.47680664 C-75.62864309 40.24317814 -74.07865144 41.01169967 -72.53125 41.78540039 C-72.53125 40.56852539 -72.53125 39.35165039 -72.53125 38.09790039 C-72.20021939 35.48307277 -72.02724262 34.21780626 -70.01538086 32.46386719 C-69.04677124 31.9172644 -69.04677124 31.9172644 -68.05859375 31.35961914 C-67.33526855 30.94091553 -66.61194336 30.52221191 -65.86669922 30.09082031 C-65.09600098 29.66003174 -64.32530273 29.22924316 -63.53125 28.78540039 C-61.99020708 27.88030436 -60.44985276 26.97403497 -58.91015625 26.06665039 C-57.30551766 25.13813091 -55.70004045 24.21105929 -54.09375 23.28540039 C-53.29904297 22.82520508 -52.50433594 22.36500977 -51.68554688 21.89086914 C-47.79692349 19.64439021 -43.89599925 17.42540348 -39.96484375 15.25415039 C-35.60611587 12.84263526 -31.31600184 10.32537129 -27.03125 7.78540039 C-25.54441581 6.91405921 -24.0574381 6.04296288 -22.5703125 5.17211914 C-20.24950147 3.80967158 -17.95852483 2.42528963 -15.6796875 0.99243164 C-14.92945313 0.53223633 -14.17921875 0.07204102 -13.40625 -0.40209961 C-12.80554688 -0.7875293 -12.20484375 -1.17295898 -11.5859375 -1.57006836 C-7.3015662 -2.91402514 -3.90831403 -1.87537252 0 0 Z " fill="#8EC2C2" transform="translate(146.53125,2.214599609375)"/>
<path d="M0 0 C1.95869403 0.81163009 3.91694436 1.62433101 5.875 2.4375 C7.51082031 3.11619141 7.51082031 3.11619141 9.1796875 3.80859375 C10.80558624 4.49543463 12.42131774 5.21065887 14 6 C14 6.66 14 7.32 14 8 C14.5775 8.12375 15.155 8.2475 15.75 8.375 C18.02335767 9.00648824 19.9253529 9.88858191 22 11 C22 11.66 22 12.32 22 13 C23.423125 13.2165625 23.423125 13.2165625 24.875 13.4375 C28 14 28 14 30 15 C30 15.66 30 16.32 30 17 C30.99 17 31.98 17 33 17 C33 17.66 33 18.32 33 19 C34.03125 19.2475 35.0625 19.495 36.125 19.75 C39.9347958 20.82198708 42.76433137 22.72032437 46 25 C46.99 25.33 47.98 25.66 49 26 C49.556875 26.598125 50.11375 27.19625 50.6875 27.8125 C52.99260733 29.99300693 54.3036201 30.53839525 57.1875 31.625 C59.32421875 32.6015625 59.32421875 32.6015625 61 34 C61.50663051 36.58944485 61.50014117 39.01367289 61.52734375 41.6484375 C61.77318921 44.13058283 61.77318921 44.13058283 63.81640625 45.5390625 C65.85531585 46.52483097 67.83533877 47.33926058 70 48 C70 48.66 70 49.32 70 50 C70.825 50.226875 71.65 50.45375 72.5 50.6875 C75.28293593 51.73110097 77.18999799 52.66572045 79.625 54.25 C84.14891464 57.12852311 88.80230256 59.7302966 93.5 62.3125 C94.32242188 62.76689453 95.14484375 63.22128906 95.9921875 63.68945312 C97.99371195 64.79494628 99.99631795 65.89842384 102 67 C102 67.66 102 68.32 102 69 C103.0725 69.0825 104.145 69.165 105.25 69.25 C109.53978851 70.1079577 110.02670211 71.02670211 113 74 C115.02460818 75.13303761 117.09085188 76.19408207 119.1875 77.1875 C124.93055556 79.93055556 124.93055556 79.93055556 126 81 C126.09413687 83.05556661 126.11742998 85.11440181 126.11352539 87.17211914 C126.11367142 87.81600082 126.11381744 88.45988251 126.1139679 89.12327576 C126.11326885 91.26060303 126.10547691 93.39784413 126.09765625 95.53515625 C126.09579204 97.01346285 126.09436815 98.49177007 126.09336853 99.97007751 C126.08954359 103.86798802 126.07971352 107.76586149 126.06866455 111.66375732 C126.05844992 115.63846333 126.0538708 119.61317529 126.04882812 123.58789062 C126.03809122 131.391944 126.02101509 139.19596682 126 147 C128.31 147.66 130.62 148.32 133 149 C133 124.58 133 100.16 133 75 C136.465 74.01 136.465 74.01 140 73 C140 72.34 140 71.68 140 71 C141.25876953 70.34257812 141.25876953 70.34257812 142.54296875 69.671875 C150.46404034 65.50560437 158.28770945 61.18340643 166.0625 56.75 C166.95412842 56.24307617 167.84575684 55.73615234 168.7644043 55.21386719 C172.35932294 53.1549685 175.87793419 51.08185589 179.3203125 48.7734375 C182.46831086 46.69006832 185.66162394 45.34151927 189.14453125 43.9296875 C191.17850537 43.14242792 191.17850537 43.14242792 192 41 C194.5625 40.375 194.5625 40.375 197 40 C197.287803 43.05071175 197.4472872 45.96060262 197 49 C194.5776532 51.10361696 193.21754366 52 190 52 C190 52.66 190 53.32 190 54 C188.04414675 55.00484204 186.08523763 56.00373805 184.125 57 C183.03445312 57.556875 181.94390625 58.11375 180.8203125 58.6875 C178 60 178 60 176 60 C176 60.66 176 61.32 176 62 C175.46375 62.25652344 174.9275 62.51304687 174.375 62.77734375 C167.37591604 66.19630417 160.60468652 69.97526152 153.83203125 73.81640625 C153.1973291 74.17621582 152.56262695 74.53602539 151.90869141 74.90673828 C150.60886166 75.65125575 149.31442204 76.40524522 148.02490234 77.16748047 C143.20600528 80 143.20600528 80 141 80 C142.41831051 82.83662101 144.03406985 82.84398786 147 84 C149.90518575 85.46420781 152.76264189 87.01653355 155.625 88.5625 C157.13686498 89.3784474 158.64984256 90.19233749 160.1640625 91.00390625 C160.82873535 91.36299072 161.4934082 91.7220752 162.17822266 92.09204102 C164.14986668 93.12781491 164.14986668 93.12781491 167 94 C167.5775 94.61875 168.155 95.2375 168.75 95.875 C171.63498521 98.59970825 174.30938674 99.58053336 178 101 C178 101.66 178 102.32 178 103 C180.31 103.66 182.62 104.32 185 105 C185 105.66 185 106.32 185 107 C185.99 107.37125 185.99 107.37125 187 107.75 C190.76470374 109.31862656 194.36708395 111.15104074 198 113 C199.3328694 113.66759372 200.66607302 114.33452195 202 115 C202 115.66 202 116.32 202 117 C202.99 117.33 203.98 117.66 205 118 C205.04638784 126.12781163 205.0819019 134.25556773 205.10362434 142.38347912 C205.11405124 146.1578 205.12819037 149.93203016 205.15087891 153.70629883 C205.17264644 157.35025738 205.18457686 160.99412879 205.18975449 164.63814735 C205.19344323 166.02678104 205.20064646 167.41541009 205.21146011 168.80400658 C205.22602615 170.75234684 205.22681736 172.70077522 205.22705078 174.64916992 C205.231492 175.7572551 205.23593323 176.86534027 205.24050903 178.00700378 C204.99328094 181.08361488 204.39019738 183.25450453 203 186 C200.34554273 187.4343592 199.02868063 187.00781139 196.1171875 186.21484375 C187.6862194 182.89324548 179.47947829 179.47947829 173 173 C172.34 172.835 171.68 172.67 171 172.5 C169 172 169 172 167.6875 170.625 C165.6570059 168.66970939 163.49268141 167.92018838 160.90234375 166.890625 C158.21869616 165.63421504 155.99623965 163.91350617 153.67578125 162.0859375 C151.80681837 160.8748147 150.17321269 160.42612013 148 160 C148 159.34 148 158.68 148 158 C146.80375 157.79375 145.6075 157.5875 144.375 157.375 C143.70210937 157.25898438 143.02921875 157.14296875 142.3359375 157.0234375 C139.27874067 156.99276328 136.86699405 157.99397694 134 159 C134.00999275 160.30545525 134.00999275 160.30545525 134.02018738 161.63728333 C134.08026203 169.83321149 134.12595581 178.02906587 134.15543652 186.22516346 C134.17110231 190.43902276 134.19235703 194.65270036 134.22631836 198.86645508 C134.25887957 202.93186419 134.27684613 206.99709836 134.28463173 211.06262779 C134.2901811 212.61481163 134.30101755 214.16698573 134.31719017 215.71909523 C134.33892207 217.89082259 134.3419688 220.06182424 134.34057617 222.23364258 C134.35056892 224.08896355 134.35056892 224.08896355 134.36076355 225.98176575 C134 229 134 229 132.59590149 230.93217468 C131 232 131 232 129.125 231.8515625 C126.63394774 230.85330994 124.34603486 229.68068012 122 228.375 C121.01773438 227.8284375 120.03546875 227.281875 119.0234375 226.71875 C115.20523915 224.54819796 111.41225615 222.33730797 107.625 220.11328125 C100.2977716 215.8256681 92.90487809 211.65006644 85.53076172 207.44384766 C81.91525461 205.38113214 78.30132768 203.31565591 74.6875 201.25 C73.57761719 200.61578125 72.46773438 199.9815625 71.32421875 199.328125 C70.55722656 198.88984375 69.79023437 198.4515625 69 198 C69 195.03 69 192.06 69 189 C68.13375 189.515625 67.2675 190.03125 66.375 190.5625 C62.42376771 192.24543227 61.09871733 192.04221663 57 191 C53.84375 189.43359375 53.84375 189.43359375 50.5 187.4375 C49.25405496 186.70287272 48.0079571 185.96850459 46.76171875 185.234375 C46.13313965 184.85990234 45.50456055 184.48542969 44.85693359 184.09960938 C42.02968818 182.42541619 39.17021513 180.80899369 36.3125 179.1875 C33.87343418 177.79439603 31.43654042 176.39751546 29 175 C28.25524414 174.57283691 27.51048828 174.14567383 26.74316406 173.70556641 C-1.53508693 157.46491307 -1.53508693 157.46491307 -4 155 C-4.12609338 152.72141939 -4.18087871 150.43887919 -4.20874023 148.15698242 C-4.21852402 147.44149734 -4.2283078 146.72601227 -4.23838806 145.98884583 C-4.26840555 143.61107258 -4.28974527 141.23335585 -4.30859375 138.85546875 C-4.31516558 138.04496881 -4.3217374 137.23446888 -4.32850838 136.39940834 C-4.36113058 132.10898204 -4.38557379 127.81858088 -4.4050293 123.52807617 C-4.42284728 119.97269634 -4.45766946 116.41810897 -4.50756836 112.86303711 C-4.56767958 108.57592644 -4.59849248 104.28955101 -4.60820198 100.00203896 C-4.61677431 98.36689013 -4.63563637 96.73176186 -4.6649456 95.09685326 C-4.70377671 92.80742813 -4.70490781 90.52087626 -4.69702148 88.23120117 C-4.70732895 86.92849777 -4.71763641 85.62579437 -4.72825623 84.28361511 C-4 81 -4 81 -0.95643616 78.54804993 C0.01918777 78.03719345 0.99481171 77.52633698 2 77 C1.35002045 76.31414322 0.70004089 75.62828644 0.03036499 74.92164612 C-2.43113638 71.37960518 -2.49612702 69.53034768 -2.48583984 65.25366211 C-2.48963654 64.59611435 -2.49343323 63.93856659 -2.49734497 63.26109314 C-2.50472186 61.0993496 -2.48341316 58.93896668 -2.4609375 56.77734375 C-2.45855147 55.26949725 -2.45764809 53.76164774 -2.4581604 52.25379944 C-2.45503746 49.098941 -2.43851048 45.94453865 -2.41162109 42.78979492 C-2.37761258 38.7489927 -2.36999366 34.70869039 -2.37151146 30.6677618 C-2.37096729 27.55619041 -2.35999309 24.44472795 -2.34550858 21.33319283 C-2.33915196 19.84327582 -2.33520434 18.3533465 -2.33372116 16.86341667 C-2.32937758 14.78104554 -2.31185563 12.699201 -2.29052734 10.61694336 C-2.28290375 9.43289413 -2.27528015 8.24884491 -2.26742554 7.02891541 C-2.0111928 4.12677196 -1.51662359 2.45053054 0 0 Z " fill="#8FC4C4" transform="translate(6,81)"/>
<path d="M0 0 C2.83932012 1.55925324 5.62627907 3.18523835 8.40625 4.84790039 C9.37626953 5.41573242 10.34628906 5.98356445 11.34570312 6.56860352 C13.72625822 7.96410133 16.10010386 9.3698152 18.46875 10.78540039 C18.46875 11.44540039 18.46875 12.10540039 18.46875 12.78540039 C19.18732178 12.89263428 19.90589355 12.99986816 20.64624023 13.11035156 C23.7289561 13.84763289 25.90409429 14.97662747 28.62890625 16.58618164 C30.0665332 17.4340625 30.0665332 17.4340625 31.53320312 18.29907227 C32.52255859 18.89268555 33.51191406 19.48629883 34.53125 20.09790039 C36.02108398 20.97091797 36.02108398 20.97091797 37.54101562 21.86157227 C46.1225048 26.96423553 46.1225048 26.96423553 49.46875 30.78540039 C49.46875 31.44540039 49.46875 32.10540039 49.46875 32.78540039 C50.78875 32.78540039 52.10875 32.78540039 53.46875 32.78540039 C53.34375 35.09790039 53.34375 35.09790039 52.46875 37.78540039 C47.60668103 40.78540039 47.60668103 40.78540039 44.46875 40.78540039 C44.46875 41.44540039 44.46875 42.10540039 44.46875 42.78540039 C43.47875 42.78540039 42.48875 42.78540039 41.46875 42.78540039 C41.46875 43.44540039 41.46875 44.10540039 41.46875 44.78540039 C40.4478125 45.15665039 40.4478125 45.15665039 39.40625 45.53540039 C37.04097311 46.54190119 34.98322598 47.61132669 32.78125 48.91040039 C29.46875 50.78540039 29.46875 50.78540039 27.46875 50.78540039 C27.46875 51.44540039 27.46875 52.10540039 27.46875 52.78540039 C26.5509375 53.23270508 25.633125 53.68000977 24.6875 54.14086914 C17.17193371 57.83152156 9.99328342 61.65990033 3.09375 66.42602539 C2.289375 66.97774414 1.485 67.52946289 0.65625 68.09790039 C-0.07207031 68.6096582 -0.80039063 69.12141602 -1.55078125 69.64868164 C-3.53125 70.78540039 -3.53125 70.78540039 -6.53125 70.78540039 C-6.53125 95.20540039 -6.53125 119.62540039 -6.53125 144.78540039 C-7.19125 145.11540039 -7.85125 145.44540039 -8.53125 145.78540039 C-9.52125 145.45540039 -10.51125 145.12540039 -11.53125 144.78540039 C-11.53125 144.12540039 -11.53125 143.46540039 -11.53125 142.78540039 C-12.62566406 142.63071289 -12.62566406 142.63071289 -13.7421875 142.47290039 C-16.79611321 141.72011198 -18.60985619 140.60550319 -21.15625 138.78540039 C-23.70921131 136.97305926 -25.53813125 135.78310664 -28.53125 134.78540039 C-28.53125 134.12540039 -28.53125 133.46540039 -28.53125 132.78540039 C-29.43875 132.51727539 -30.34625 132.24915039 -31.28125 131.97290039 C-34.33360404 130.85761718 -35.9884937 129.71173092 -38.53125 127.78540039 C-40.23109492 127.04773184 -41.93209538 126.31195032 -43.6484375 125.61352539 C-46.75428352 124.24746864 -49.61335401 122.51231842 -52.53125 120.78540039 C-52.53125 120.12540039 -52.53125 119.46540039 -52.53125 118.78540039 C-53.11132812 118.61524414 -53.69140625 118.44508789 -54.2890625 118.26977539 C-59.32742028 116.7067205 -63.35173055 115.02452797 -67.53125 111.78540039 C-67.86125 111.12540039 -68.19125 110.46540039 -68.53125 109.78540039 C-69.52125 109.45540039 -70.51125 109.12540039 -71.53125 108.78540039 C-71.7166888 99.09322704 -71.85879363 89.40166495 -71.94574738 79.70810413 C-71.98748385 75.20678325 -72.04407917 70.70667662 -72.13476562 66.20605469 C-72.22175397 61.86172777 -72.26953574 57.51856774 -72.29026794 53.17343712 C-72.30503951 51.51668611 -72.33388767 49.85999838 -72.37709045 48.20374489 C-72.70209959 35.22667786 -72.70209959 35.22667786 -69.85948181 31.72750854 C-67.78144152 30.40590195 -65.85861451 29.57076025 -63.53125 28.78540039 C-62.70310791 28.29104492 -61.87496582 27.79668945 -61.02172852 27.28735352 C-60.32490967 26.88452148 -59.62809082 26.48168945 -58.91015625 26.06665039 C-58.11931641 25.6090332 -57.32847656 25.15141602 -56.51367188 24.67993164 C-55.71509766 24.21973633 -54.91652344 23.75954102 -54.09375 23.28540039 C-53.29904297 22.82520508 -52.50433594 22.36500977 -51.68554688 21.89086914 C-47.79692349 19.64439021 -43.89599925 17.42540348 -39.96484375 15.25415039 C-35.60611587 12.84263526 -31.31600184 10.32537129 -27.03125 7.78540039 C-25.54441581 6.91405921 -24.0574381 6.04296288 -22.5703125 5.17211914 C-20.24950147 3.80967158 -17.95852483 2.42528963 -15.6796875 0.99243164 C-14.92945313 0.53223633 -14.17921875 0.07204102 -13.40625 -0.40209961 C-12.80554688 -0.7875293 -12.20484375 -1.17295898 -11.5859375 -1.57006836 C-7.3015662 -2.91402514 -3.90831403 -1.87537252 0 0 Z " fill="#8EC3C3" transform="translate(146.53125,2.214599609375)"/>
<path d="M0 0 C4.875 1.875 4.875 1.875 6 3 C6.12086108 5.30933815 6.17030931 7.62242585 6.19287109 9.93481445 C6.20513733 11.02267242 6.20513733 11.02267242 6.21765137 12.13250732 C6.24254995 14.54275678 6.25903316 16.95294715 6.2734375 19.36328125 C6.27876118 20.18481375 6.28408485 21.00634624 6.28956985 21.85277367 C6.31632164 26.20156294 6.33568944 30.55032331 6.35009766 34.89916992 C6.3667452 39.39542655 6.41151727 43.89095011 6.4624691 48.38692951 C6.49610013 51.83988807 6.50767053 55.29267187 6.51332474 58.74577904 C6.52004946 60.40322658 6.53530327 62.06066214 6.55921555 63.71795082 C6.59078187 66.03824414 6.59091785 68.35655094 6.58349609 70.67700195 C6.59990143 71.36235519 6.61630676 72.04770844 6.63320923 72.75382996 C6.60800171 74.67842102 6.60800171 74.67842102 6 78 C3.46353149 80.45768738 3.46353149 80.45768738 1 82 C2.21159286 82.76502335 2.21159286 82.76502335 3.44766235 83.54550171 C6.84258169 86.81028281 6.69477345 88.61706468 6.83740234 93.27197266 C6.86543945 93.9977652 6.89347656 94.72355774 6.92236328 95.47134399 C7.00547902 97.86907641 7.04937295 100.265192 7.0859375 102.6640625 C7.11088728 103.89754992 7.11088728 103.89754992 7.13634109 105.15595627 C7.22296894 109.51171187 7.27928291 113.86665637 7.31103516 118.22314453 C7.34191323 121.81686468 7.42522285 125.40321655 7.55712891 128.99462891 C8.59963931 157.92240832 8.59963931 157.92240832 4.35302734 164.58331299 C0.46483576 168.28412325 -3.82148655 170.08900614 -8.96398926 171.42837524 C-11.81494913 172.22880287 -14.21347148 173.62200106 -16.75 175.125 C-17.60078125 175.58132812 -18.4515625 176.03765625 -19.328125 176.5078125 C-23.57425023 178.87918653 -27.67270556 181.48502145 -31.80078125 184.0546875 C-35.58870089 186.35796464 -39.45229382 188.47233647 -43.37109375 190.54296875 C-46.09228916 192.05114986 -48.64953452 193.73131224 -51.25 195.4375 C-54.42335569 197.38916444 -56.39058765 198.40741622 -60.125 197.875 C-61.07375 197.58625 -62.0225 197.2975 -63 197 C-61.68 196.67 -60.36 196.34 -59 196 C-58.99635437 195.10464035 -58.99270874 194.2092807 -58.98895264 193.28678894 C-58.95111007 184.8551498 -58.89430024 176.42389894 -58.81609726 167.99253368 C-58.77656188 163.65768592 -58.74440339 159.32304314 -58.72900391 154.98803711 C-58.71387687 150.80566559 -58.67950281 146.62385737 -58.63169098 142.44173622 C-58.61683613 140.84497278 -58.60895664 139.24812893 -58.60811615 137.65129662 C-58.60575689 135.41690153 -58.5787657 133.18407647 -58.54589844 130.94995117 C-58.53701599 129.67754074 -58.52813354 128.40513031 -58.51898193 127.09416199 C-58 124 -58 124 -56.09088135 122.06562805 C-54 121 -54 121 -52 121 C-52 120.34 -52 119.68 -52 119 C-51.45472656 118.78085938 -50.90945312 118.56171875 -50.34765625 118.3359375 C-45.28003286 116.20493689 -40.851663 113.70456256 -36.33203125 110.5859375 C-33.84695908 108.89592192 -31.3185021 107.3101272 -28.75 105.75 C-27.96109375 105.27046875 -27.1721875 104.7909375 -26.359375 104.296875 C-24 103 -24 103 -21.4609375 101.99609375 C-18.99451538 100.99778003 -17.056514 99.82628823 -14.875 98.3125 C-10.38769366 95.22511217 -5.76665377 92.40397035 -1.08984375 89.61328125 C-0.40019531 89.08089844 0.28945313 88.54851562 1 88 C1 87.01 1 86.02 1 85 C-1.97 83.35 -4.94 81.7 -8 80 C-8 79.34 -8 78.68 -8 78 C-10.31 77.34 -12.62 76.68 -15 76 C-15 75.34 -15 74.68 -15 74 C-15.515625 73.9175 -16.03125 73.835 -16.5625 73.75 C-22.10399779 72.04492376 -26.77962063 68.55413493 -31.32421875 65.05078125 C-32.99117991 63.88224879 -32.99117991 63.88224879 -35.14453125 63.48046875 C-36.06298828 63.24263672 -36.06298828 63.24263672 -37 63 C-37.33 62.34 -37.66 61.68 -38 61 C-40.17311838 59.97368997 -40.17311838 59.97368997 -42.75 59.0625 C-46.41888228 57.6481798 -49.74157651 56.23434753 -53 54 C-53.928125 53.443125 -54.85625 52.88625 -55.8125 52.3125 C-58 50 -58 50 -58.6875 46.0625 C-58.54251383 43.56031927 -58.27595006 42.34976041 -56.71484375 40.37109375 C-52.80591168 37 -52.80591168 37 -50 37 C-50 36.34 -50 35.68 -50 35 C-49.20335937 34.61328125 -48.40671875 34.2265625 -47.5859375 33.828125 C-40.79275849 30.55622506 -40.79275849 30.55622506 -34.375 26.625 C-32 25 -32 25 -30 25 C-30 24.34 -30 23.68 -30 23 C-28.02 22.67 -26.04 22.34 -24 22 C-24 21.34 -24 20.68 -24 20 C-18.25 17 -18.25 17 -16 17 C-16 16.34 -16 15.68 -16 15 C-15.40832031 14.75765625 -14.81664062 14.5153125 -14.20703125 14.265625 C-9.58267544 12.30423428 -5.79534408 10.36159047 -2 7 C-0.67098936 5.99426222 0.66073801 4.99204592 2 4 C1.34 3.67 0.68 3.34 0 3 C0 2.01 0 1.02 0 0 Z " fill="#75A0A1" transform="translate(270,75)"/>
<path d="M0 0 C0.02317038 9.05777944 0.04093907 18.11554868 0.05181217 27.17335129 C0.05703071 31.37925005 0.06410971 35.58512853 0.07543945 39.79101562 C0.08630486 43.84992929 0.0922846 47.90882346 0.09487724 51.96775055 C0.09672489 53.51629188 0.10033286 55.06483215 0.10573006 56.61336517 C0.11298894 58.78230598 0.11398889 60.95116619 0.11352539 63.12011719 C0.115746 64.35477722 0.11796661 65.58943726 0.12025452 66.86151123 C-0.06113379 71.59551364 -0.06113379 71.59551364 -1 74 C-2.6476038 74.71247732 -4.31763529 75.37400383 -6 76 C-6.61875 76.639375 -7.2375 77.27875 -7.875 77.9375 C-10.08037195 80.07800807 -12.06100025 80.979108 -14.890625 82.09765625 C-24.27508559 86.11211995 -33.59731842 91.6995099 -41.8125 97.75 C-45 100 -45 100 -47.75 100.8125 C-51.00772856 102.53185674 -51.42539882 104.92306154 -52.51953125 108.3203125 C-52.67808594 108.87460937 -52.83664063 109.42890625 -53 110 C-52.34 110.33 -51.68 110.66 -51 111 C-51.33 112.65 -51.66 114.3 -52 116 C-50.35 116.66 -48.7 117.32 -47 118 C-47 118.66 -47 119.32 -47 120 C-50.40312738 118.94124926 -53.01353231 117.99097846 -56 116 C-56.29296875 113.8359375 -56.29296875 113.8359375 -56.1875 111.375 C-56.16042969 110.55773437 -56.13335937 109.74046875 -56.10546875 108.8984375 C-56.07066406 108.27195312 -56.03585938 107.64546875 -56 107 C-57.299375 107.7734375 -57.299375 107.7734375 -58.625 108.5625 C-62.54974336 110.23414995 -63.96618782 110.23484046 -68 109 C-70.43132873 107.78187975 -72.68335642 106.43631902 -75 105 C-73.02 104.01 -73.02 104.01 -71 103 C-71 103.66 -71 104.32 -71 105 C-68.69 104.01 -66.38 103.02 -64 102 C-63.99635437 101.17980881 -63.99270874 100.35961761 -63.98895264 99.51457214 C-63.95110364 91.78926376 -63.89428711 84.06443927 -63.81609726 76.33944225 C-63.77656845 72.36779807 -63.74440685 68.39637738 -63.72900391 64.42456055 C-63.71387236 60.59229266 -63.67949074 56.76063899 -63.63169098 52.92864418 C-63.6168407 51.46585742 -63.60895689 50.00298298 -63.60811615 48.54012108 C-63.60575543 46.49246936 -63.57875436 44.44652758 -63.54589844 42.39916992 C-63.53701599 41.23334885 -63.52813354 40.06752777 -63.51898193 38.86637878 C-63 36 -63 36 -61.09088135 34.10005188 C-59 33 -59 33 -57 33 C-57 32.34 -57 31.68 -57 31 C-47.58997722 26.77676538 -47.58997722 26.77676538 -43 25 C-43 24.34 -43 23.68 -43 23 C-42.39671875 22.75765625 -41.7934375 22.5153125 -41.171875 22.265625 C-36.19188117 20.24902171 -36.19188117 20.24902171 -32 17 C-28.92692581 13.92692581 -25.05346065 12.47114016 -21 11 C-20.34 11 -19.68 11 -19 11 C-19 10.34 -19 9.68 -19 9 C-18.41992188 8.68546875 -17.83984375 8.3709375 -17.2421875 8.046875 C-13.61291911 6.05856294 -10.05316121 4.10143182 -6.6875 1.6875 C-4 0 -4 0 0 0 Z " fill="#77A4A4" transform="translate(131,163)"/>
<path d="M0 0 C4.56940188 1.68904676 8.41020059 4.04651881 12.5 6.66015625 C15.04300701 8.02304907 17.15961179 8.58915813 20 9 C20 9.66 20 10.32 20 11 C21.32 11.33 22.64 11.66 24 12 C24 12.66 24 13.32 24 14 C25.31097656 14.38478516 25.31097656 14.38478516 26.6484375 14.77734375 C30.04817632 16.01757481 32.63310109 17.54402172 35.625 19.5625 C38.8144814 21.71115624 41.28383846 23.11720144 45 24 C45.495 24.99 45.495 24.99 46 26 C47.9717304 27.05464649 49.97762948 28.04605164 52 29 C54.00812926 29.98357352 56.00854609 30.98308736 58 32 C58.87387863 32.37691483 59.74775726 32.75382965 60.64811707 33.14216614 C63 35 63 35 63.60127258 38.20805359 C63.61576256 39.54711823 63.60247722 40.88665232 63.56762695 42.2253418 C63.56835709 42.95729767 63.56908722 43.68925354 63.56983948 44.44338989 C63.56635594 46.86275352 63.52746291 49.28019158 63.48828125 51.69921875 C63.47895574 53.37643888 63.47183839 55.05367264 63.46684265 56.73091125 C63.44775191 61.14537156 63.39863399 65.55900925 63.34332275 69.97314453 C63.29217457 74.47742585 63.26933813 78.98184011 63.24414062 83.48632812 C63.19051665 92.32458018 63.10517928 101.16222169 63 110 C61.68 109.67 60.36 109.34 59 109 C59 108.34 59 107.68 59 107 C58.27039063 106.896875 57.54078125 106.79375 56.7890625 106.6875 C53.73513679 105.93471159 51.92139381 104.8201028 49.375 103 C46.82203869 101.18765887 44.99311875 99.99770625 42 99 C42 98.34 42 97.68 42 97 C41.0925 96.731875 40.185 96.46375 39.25 96.1875 C36.19764596 95.07221679 34.5427563 93.92633053 32 92 C30.30015508 91.26233145 28.59915462 90.52654993 26.8828125 89.828125 C23.77696648 88.46206824 20.91789599 86.72691803 18 85 C18 84.34 18 83.68 18 83 C17.41992188 82.82984375 16.83984375 82.6596875 16.2421875 82.484375 C11.20382972 80.92132011 7.17951945 79.23912757 3 76 C2.67 75.34 2.34 74.68 2 74 C1.01 73.67 0.02 73.34 -1 73 C-1.02325991 64.81087636 -1.04098426 56.62176674 -1.05181217 48.43261814 C-1.0570113 44.62930184 -1.06405447 40.82600829 -1.07543945 37.02270508 C-1.08637456 33.34631568 -1.09229916 29.66994804 -1.09487724 25.99354362 C-1.09671247 24.59706213 -1.10029586 23.2005817 -1.10573006 21.80410957 C-1.13318402 14.45073048 -1.00838723 7.28899972 0 0 Z " fill="#A6E2E2" transform="translate(76,38)"/>
<path d="M0 0 C4.61537637 1.31867896 8.33842923 2.84934608 12 6 C12.875 9.75 12.875 9.75 13 13 C13.53625 12.649375 14.0725 12.29875 14.625 11.9375 C17.81689475 10.67754155 19.72424145 11.09393913 23 12 C24.875 13.5625 24.875 13.5625 26 15 C23.69 14.34 21.38 13.68 19 13 C19 13.66 19 14.32 19 15 C18.030625 15.144375 17.06125 15.28875 16.0625 15.4375 C13.13513227 15.67562341 13.13513227 15.67562341 12 17 C11.87624831 19.02414991 11.82202689 21.05257737 11.79467773 23.08032227 C11.77473251 24.38159561 11.75478729 25.68286896 11.73423767 27.02357483 C11.71725201 28.4545174 11.70037325 29.88546125 11.68359375 31.31640625 C11.66303094 32.7722992 11.64203466 34.22818609 11.62062073 35.68406677 C11.56533039 39.52272647 11.51595198 43.36144065 11.46777344 47.20019531 C11.41760909 51.11463288 11.36189664 55.02899096 11.30664062 58.94335938 C11.19897397 66.62883901 11.09754807 74.31438457 11 82 C10.3093042 82.33628418 9.6186084 82.67256836 8.90698242 83.01904297 C8.00310791 83.46393066 7.0992334 83.90881836 6.16796875 84.3671875 C4.82255005 85.02630127 4.82255005 85.02630127 3.44995117 85.69873047 C0.67568621 87.17225635 -1.56519527 89.02583401 -4 91 C-6.31808364 92.03485877 -8.65175298 93.0355414 -11 94 C-11.928125 94.556875 -12.85625 95.11375 -13.8125 95.6875 C-16 97 -16 97 -18 97 C-18 97.66 -18 98.32 -18 99 C-19.62249941 99.83819158 -21.24808497 100.6704116 -22.875 101.5 C-24.23238281 102.19609375 -24.23238281 102.19609375 -25.6171875 102.90625 C-28 104 -28 104 -30 104 C-30 104.66 -30 105.32 -30 106 C-31.95585325 107.00484204 -33.91476237 108.00373805 -35.875 109 C-36.96554688 109.556875 -38.05609375 110.11375 -39.1796875 110.6875 C-42 112 -42 112 -44 112 C-44 112.66 -44 113.32 -44 114 C-50.875 117 -50.875 117 -52 117 C-52 92.58 -52 68.16 -52 43 C-49.36 41.68 -46.72 40.36 -44 39 C-40.37692033 36.8023943 -36.82061682 34.54786846 -33.296875 32.1953125 C-28.25522457 28.87553722 -23.94854458 26.18970892 -18 25 C-18 24.34 -18 23.68 -18 23 C-16.60922699 22.17886823 -15.21211107 21.36847505 -13.8125 20.5625 C-13.03519531 20.11003906 -12.25789063 19.65757813 -11.45703125 19.19140625 C-8.95068023 17.97608501 -6.74209635 17.42373425 -4 17 C-4 16.34 -4 15.68 -4 15 C-3.01 15 -2.02 15 -1 15 C-1 14.34 -1 13.68 -1 13 C4.75 10 4.75 10 7 10 C7.33 8.35 7.66 6.7 8 5 C6.68 5 5.36 5 4 5 C1.75 2.5 1.75 2.5 0 0 Z " fill="#77A4A4" transform="translate(192,30)"/>
<path d="M0 0 C1.98 0.66 3.96 1.32 6 2 C6 2.66 6 3.32 6 4 C7.6396875 4.4021875 7.6396875 4.4021875 9.3125 4.8125 C12.94036348 5.98079502 13.55517655 6.4533089 16 9 C17.5535377 9.67545117 19.11049874 10.34409777 20.68359375 10.97265625 C25.94572331 13.30645064 30.95689687 16.23198099 36 19 C36 19.66 36 20.32 36 21 C36.92232422 21.29003906 36.92232422 21.29003906 37.86328125 21.5859375 C38.67152344 21.84632813 39.47976562 22.10671875 40.3125 22.375 C41.11300781 22.63023437 41.91351563 22.88546875 42.73828125 23.1484375 C45 24 45 24 48 26 C48 26.66 48 27.32 48 28 C48.556875 28.103125 49.11375 28.20625 49.6875 28.3125 C52.46231275 29.13744433 54.53979132 30.47701367 57 32 C58.98 32.99 60.96 33.98 63 35 C63 57.77 63 80.54 63 104 C59.535 104.495 59.535 104.495 56 105 C55.67 104.67 55.34 104.34 55 104 C54.01 103.938125 53.02 103.87625 52 103.8125 C47.73284353 103.25742274 44.99515932 101.20613381 41.55517578 98.73730469 C39.07887682 97.0536296 36.58467016 95.61467864 33.9453125 94.203125 C32.98238281 93.68403564 32.01945312 93.16494629 31.02734375 92.63012695 C30.02832031 92.09218506 29.02929688 91.55424316 28 91 C24.03124759 88.83097746 20.07604818 86.63857605 16.125 84.4375 C14.61679687 83.61088867 14.61679687 83.61088867 13.078125 82.76757812 C12.10617188 82.22423828 11.13421875 81.68089844 10.1328125 81.12109375 C8.83174561 80.40070923 8.83174561 80.40070923 7.50439453 79.66577148 C4.49793557 77.66605716 2.32302735 75.78318663 0 73 C-0.60127258 69.62736511 -0.60127258 69.62736511 -0.56762695 65.73120117 C-0.56835709 65.01846039 -0.56908722 64.3057196 -0.56983948 63.57138062 C-0.56637046 61.2277882 -0.52754707 58.88621158 -0.48828125 56.54296875 C-0.47895056 54.91344793 -0.47183565 53.28391305 -0.46684265 51.65437317 C-0.44779269 47.37473521 -0.39871017 43.09595176 -0.34332275 38.81665039 C-0.29208644 34.44624388 -0.26931932 30.07569869 -0.24414062 25.70507812 C-0.19058857 17.13632751 -0.1053012 8.56827019 0 0 Z " fill="#A5E0E0" transform="translate(4,163)"/>
<path d="M0 0 C3.23236446 1.29294578 6.08322466 2.49868295 9.1015625 4.12890625 C9.83890625 4.52400391 10.57625 4.91910156 11.3359375 5.32617188 C12.09132812 5.73416016 12.84671875 6.14214844 13.625 6.5625 C15.13686498 7.3784474 16.64984256 8.19233749 18.1640625 9.00390625 C18.82873535 9.36299072 19.4934082 9.7220752 20.17822266 10.09204102 C22.14986668 11.12781491 22.14986668 11.12781491 25 12 C25.5775 12.61875 26.155 13.2375 26.75 13.875 C29.63498521 16.59970825 32.30938674 17.58053336 36 19 C36 19.66 36 20.32 36 21 C38.31 21.66 40.62 22.32 43 23 C43 23.66 43 24.32 43 25 C43.66 25.2475 44.32 25.495 45 25.75 C48.76470374 27.31862656 52.36708395 29.15104074 56 31 C57.3328694 31.66759372 58.66607302 32.33452195 60 33 C60 33.66 60 34.32 60 35 C60.99 35.33 61.98 35.66 63 36 C63.04638784 44.12781163 63.0819019 52.25556773 63.10362434 60.38347912 C63.11405124 64.1578 63.12819037 67.93203016 63.15087891 71.70629883 C63.17264644 75.35025738 63.18457686 78.99412879 63.18975449 82.63814735 C63.19344323 84.02678104 63.20064646 85.41541009 63.21146011 86.80400658 C63.22602615 88.75234684 63.22681736 90.70077522 63.22705078 92.64916992 C63.231492 93.7572551 63.23593323 94.86534027 63.24050903 96.00700378 C62.99328094 99.08361488 62.39019738 101.25450453 61 104 C58.34554273 105.4343592 57.02868063 105.00781139 54.1171875 104.21484375 C45.6862194 100.89324548 37.47947829 97.47947829 31 91 C30.34 90.835 29.68 90.67 29 90.5 C27 90 27 90 25.6875 88.625 C23.6570059 86.66970939 21.49268141 85.92018838 18.90234375 84.890625 C16.21869616 83.63421504 13.99623965 81.91350617 11.67578125 80.0859375 C9.80681837 78.8748147 8.17321269 78.42612013 6 78 C6 77.34 6 76.68 6 76 C3.66785852 74.79371992 1.50357861 73.8345262 -1 73 C-0.67 48.91 -0.34 24.82 0 0 Z " fill="#A6E2E2" transform="translate(148,163)"/>
<path d="M0 0 C0.61875 0.2475 1.2375 0.495 1.875 0.75 C2.6175 0.935625 3.36 1.12125 4.125 1.3125 C4.7025 1.456875 5.28 1.60125 5.875 1.75 C5.875 2.41 5.875 3.07 5.875 3.75 C6.60976562 3.85570312 7.34453125 3.96140625 8.1015625 4.0703125 C11.08660889 4.80185908 12.77764359 5.83097965 15.25 7.625 C19.01856532 10.25100196 22.592971 12.110074 26.875 13.75 C26.875 14.41 26.875 15.07 26.875 15.75 C28.525 16.08 30.175 16.41 31.875 16.75 C31.875 17.41 31.875 18.07 31.875 18.75 C32.74382812 19.0078125 33.61265625 19.265625 34.5078125 19.53125 C37.93374315 20.77126202 40.6859168 22.29031535 43.75 24.25 C45.20019531 25.16265625 45.20019531 25.16265625 46.6796875 26.09375 C47.40414062 26.6403125 48.12859375 27.186875 48.875 27.75 C48.875 28.41 48.875 29.07 48.875 29.75 C49.968125 29.853125 51.06125 29.95625 52.1875 30.0625 C55.73059629 30.72307727 56.80743723 30.9527092 58.875 33.75 C57.885 33.75 56.895 33.75 55.875 33.75 C56.101875 34.306875 56.32875 34.86375 56.5625 35.4375 C56.875 37.75 56.875 37.75 56 40.1875 C52.97017711 43.84110995 49.22123476 45.89970078 44.875 47.75 C43.885 47.75 42.895 47.75 41.875 47.75 C41.875 48.41 41.875 49.07 41.875 49.75 C21.26258564 61.5818301 21.26258564 61.5818301 14.875 65 C9.68870416 67.78815265 4.70907228 70.88926938 -0.27734375 74.015625 C-6.53980552 77.82979925 -6.53980552 77.82979925 -9.875 77.375 C-10.6175 77.16875 -11.36 76.9625 -12.125 76.75 C-11.63 75.76 -11.63 75.76 -11.125 74.75 C-10.465 74.75 -9.805 74.75 -9.125 74.75 C-8.795 50.99 -8.465 27.23 -8.125 2.75 C-2.125 -0.25 -2.125 -0.25 0 0 Z " fill="#75A0A1" transform="translate(148.125,237.25)"/>
<path d="M0 0 C3.16055298 1.58380127 3.16055298 1.58380127 6 4 C6.7215271 7.17645264 6.7215271 7.17645264 6.68115234 10.97167969 C6.68246658 12.01131111 6.68246658 12.01131111 6.68380737 13.07194519 C6.67963636 15.35641332 6.63301796 17.63792198 6.5859375 19.921875 C6.57474337 21.50797929 6.5662042 23.09410435 6.56021118 24.68023682 C6.53732918 28.84993013 6.47841359 33.01836437 6.4119873 37.18756104 C6.35054987 41.44387784 6.32319319 45.70039861 6.29296875 49.95703125 C6.22866777 58.30526457 6.12629829 66.65247556 6 75 C1.93686196 75.94695376 0.28133697 76.06698398 -3.328125 73.8671875 C-4.12863281 73.39023437 -4.92914063 72.91328125 -5.75390625 72.421875 C-6.57761719 71.91140625 -7.40132812 71.4009375 -8.25 70.875 C-9.87975123 69.89247055 -11.5099582 68.91069665 -13.140625 67.9296875 C-13.94918945 67.43807129 -14.75775391 66.94645508 -15.59082031 66.43994141 C-18.61884111 64.63012516 -21.69935933 62.92783345 -24.79003906 61.22802734 C-28.48211945 59.17641838 -32.11447771 57.0247573 -35.75 54.875 C-36.47832031 54.44574219 -37.20664063 54.01648438 -37.95703125 53.57421875 C-39.35309855 52.75076707 -40.74711453 51.92382381 -42.13867188 51.09277344 C-43.74246743 50.15119567 -45.37665757 49.26174063 -47.015625 48.3828125 C-47.67046875 47.92648437 -48.3253125 47.47015625 -49 47 C-49 46.01 -49 45.02 -49 44 C-50.65 43.34 -52.3 42.68 -54 42 C-53.979375 41.278125 -53.95875 40.55625 -53.9375 39.8125 C-53.88527784 37.02005476 -53.88527784 37.02005476 -54.6875 34.5 C-55 32 -55 32 -54.0625 29.4375 C-51.65938795 26.59745849 -49.51654982 25.54909964 -46.1796875 24.02734375 C-41.36900743 21.75994436 -36.98432804 18.7613144 -32.75 15.5625 C-27.88900663 12.02012092 -22.39901548 9.60347782 -17 7 C-15.92878906 6.44570312 -14.85757813 5.89140625 -13.75390625 5.3203125 C-11 4 -11 4 -9 4 C-8.67 3.01 -8.34 2.02 -8 1 C-5.13391871 -0.43304064 -3.18699217 -0.30644155 0 0 Z " fill="#A4E0E0" transform="translate(133,237)"/>
<path d="M0 0 C1.95869403 0.81163009 3.91694436 1.62433101 5.875 2.4375 C7.51082031 3.11619141 7.51082031 3.11619141 9.1796875 3.80859375 C10.80558624 4.49543463 12.42131774 5.21065887 14 6 C14 6.66 14 7.32 14 8 C14.5775 8.12375 15.155 8.2475 15.75 8.375 C18.02335767 9.00648824 19.9253529 9.88858191 22 11 C22 11.66 22 12.32 22 13 C23.423125 13.2165625 23.423125 13.2165625 24.875 13.4375 C28 14 28 14 30 15 C30 15.66 30 16.32 30 17 C30.99 17 31.98 17 33 17 C33 17.66 33 18.32 33 19 C34.03125 19.2475 35.0625 19.495 36.125 19.75 C39.9347958 20.82198708 42.76433137 22.72032437 46 25 C46.99 25.33 47.98 25.66 49 26 C49.556875 26.598125 50.11375 27.19625 50.6875 27.8125 C53.75711515 30.71619001 57.18368551 32.25857494 61 34 C61.08131463 35.43655854 61.13933559 36.8744483 61.1875 38.3125 C61.23970703 39.51326172 61.23970703 39.51326172 61.29296875 40.73828125 C61 43 61 43 59.61328125 44.79296875 C58 46 58 46 56 46 C56 46.66 56 47.32 56 48 C54.37750059 48.83819158 52.75191503 49.6704116 51.125 50.5 C50.22007813 50.9640625 49.31515625 51.428125 48.3828125 51.90625 C46 53 46 53 44 53 C44 53.66 44 54.32 44 55 C34.58997722 59.22323462 34.58997722 59.22323462 30 61 C30 61.66 30 62.32 30 63 C27.525 63.495 27.525 63.495 25 64 C25 64.66 25 65.32 25 66 C20.69244057 68.58453566 16.80497881 70.47114311 12 72 C10.515 72.99 10.515 72.99 9 74 C7.65737935 73.70630173 6.32303717 73.3721042 5 73 C3.515 73.495 3.515 73.495 2 74 C-0.1875 73.0625 -0.1875 73.0625 -2 72 C-2.04634424 63.20300166 -2.08187981 54.40604536 -2.10362434 45.60895157 C-2.11406072 41.5240879 -2.12821724 37.43930778 -2.15087891 33.35449219 C-2.17261251 29.41228158 -2.18456973 25.47015133 -2.18975449 21.52788544 C-2.19344931 20.02399175 -2.20066437 18.52010245 -2.21146011 17.01624298 C-2.22598206 14.90949507 -2.22797767 12.80307899 -2.22705078 10.69628906 C-2.231492 9.49715881 -2.23593323 8.29802856 -2.24050903 7.06256104 C-2.00997957 4.12707652 -1.53985196 2.47030333 0 0 Z " fill="#A5E1E1" transform="translate(6,81)"/>
<path d="M0 0 C0.08086147 1.79093191 0.13912702 3.58289628 0.1875 5.375 C0.22230469 6.37273437 0.25710937 7.37046875 0.29296875 8.3984375 C0.19628906 9.25695312 0.09960938 10.11546875 0 11 C-3 13 -3 13 -6 13 C-6 13.66 -6 14.32 -6 15 C-6.66 15 -7.32 15 -8 15 C-8 12.36 -8 9.72 -8 7 C-9.65 7.33 -11.3 7.66 -13 8 C-13.33 8.99 -13.66 9.98 -14 11 C-15.984375 12.18359375 -15.984375 12.18359375 -18.75 13.4375 C-24.93789039 16.39368831 -30.869944 19.70373235 -36.8125 23.125 C-38.15489746 23.89734985 -38.15489746 23.89734985 -39.52441406 24.68530273 C-41.23877781 25.67331427 -42.95258649 26.66228971 -44.66577148 27.65234375 C-47.7712978 29.44530529 -50.8851099 31.22335898 -54 33 C-54.85207031 33.48984375 -55.70414062 33.9796875 -56.58203125 34.484375 C-57.68611328 35.11085938 -57.68611328 35.11085938 -58.8125 35.75 C-59.56144531 36.17796875 -60.31039062 36.6059375 -61.08203125 37.046875 C-63 38 -63 38 -65 38 C-65 38.66 -65 39.32 -65 40 C-67.64738916 41.4606285 -68.89448334 42 -72 42 C-72 66.42 -72 90.84 -72 116 C-74.31 115.34 -76.62 114.68 -79 114 C-79.33 92.22 -79.66 70.44 -80 48 C-82.64 46.68 -85.28 45.36 -88 44 C-89.59049444 43.13808535 -91.17545173 42.26571161 -92.75 41.375 C-95.46793811 39.84004934 -98.19864957 38.37713446 -101 37 C-101.99 36.505 -101.99 36.505 -103 36 C-103 35.34 -103 34.68 -103 34 C-104.19302734 33.67128906 -104.19302734 33.67128906 -105.41015625 33.3359375 C-110.08113409 31.59766283 -114.16228526 29.16539344 -118.4375 26.625 C-120.08196067 25.65873403 -121.72649079 24.69258626 -123.37109375 23.7265625 C-124.15339355 23.26282227 -124.93569336 22.79908203 -125.74169922 22.32128906 C-127.82222921 21.10401032 -129.92380834 19.93605266 -132.03515625 18.7734375 C-135 17 -135 17 -136 15 C-136.50526316 9.77894737 -136.50526316 9.77894737 -136 7 C-133.625 4.5 -133.625 4.5 -131 3 C-130.34 3 -129.68 3 -129 3 C-128.67 2.34 -128.34 1.68 -128 1 C-126.6696875 1.928125 -126.6696875 1.928125 -125.3125 2.875 C-122.53938816 4.65397741 -120.0859646 5.91083602 -117 7 C-117 7.66 -117 8.32 -117 9 C-116.0925 9.268125 -115.185 9.53625 -114.25 9.8125 C-111.22529089 10.91768218 -109.50164226 12.0632447 -107 14 C-106.278125 14.28875 -105.55625 14.5775 -104.8125 14.875 C-100.66712466 16.53315014 -96.87256025 18.78951898 -93 21 C-93 21.66 -93 22.32 -93 23 C-92.44441406 23.103125 -91.88882813 23.20625 -91.31640625 23.3125 C-88.52178679 24.14193175 -86.4046502 25.45198419 -83.9375 27 C-81.23919302 28.68796347 -79.02851916 29.99049361 -76 31 C-76 31.66 -76 32.32 -76 33 C-71.51474352 32.343621 -67.33085971 31.29925791 -63 30 C-63 29.34 -63 28.68 -63 28 C-61.04414675 26.99515796 -59.08523763 25.99626195 -57.125 25 C-56.03445312 24.443125 -54.94390625 23.88625 -53.8203125 23.3125 C-51 22 -51 22 -49 22 C-49 21.34 -49 20.68 -49 20 C-47.37750059 19.16180842 -45.75191503 18.3295884 -44.125 17.5 C-43.22007812 17.0359375 -42.31515625 16.571875 -41.3828125 16.09375 C-39 15 -39 15 -37 15 C-37 14.34 -37 13.68 -37 13 C-32.74193384 9.92425402 -28.06451726 7.32796488 -23.1875 5.375 C-19.92321132 3.96687547 -17.73722639 2.23300048 -15 0 C-9.85542988 -2.84305191 -5.40236786 -1.80078929 0 0 Z " fill="#90C6C6" transform="translate(211,114)"/>
<path d="M0 0 C3.14737182 0.69941596 6.02588876 1.76078698 9 3 C9 3.66 9 4.32 9 5 C11.97 5.495 11.97 5.495 15 6 C15 6.66 15 7.32 15 8 C15.804375 8.20625 16.60875 8.4125 17.4375 8.625 C20.53778207 9.8216001 22.62238606 11.00607874 25.3125 12.875 C29.65340738 15.88705818 34.10806032 18.03397223 39 20 C39 20.66 39 21.32 39 22 C39.721875 22.28875 40.44375 22.5775 41.1875 22.875 C43.79166667 23.91666667 46.39583333 24.95833333 49 26 C49 26.66 49 27.32 49 28 C49.515625 28.0825 50.03125 28.165 50.5625 28.25 C53.99824255 29.30715155 56.98282232 31.08118086 60 33 C60.68737244 33.3731282 61.37474487 33.74625641 62.08294678 34.13069153 C64 36 64 36 64.48101807 39.13212585 C64.4676944 41.06738884 64.4676944 41.06738884 64.45410156 43.04174805 C64.45468567 43.75419678 64.45526978 44.46664551 64.45587158 45.20068359 C64.45308548 47.55485819 64.42197113 49.90776547 64.390625 52.26171875 C64.38316442 53.89410205 64.37747062 55.52649431 64.37347412 57.15888977 C64.35820321 61.45485167 64.31890933 65.7502724 64.2746582 70.04602051 C64.23373662 74.42969441 64.21546979 78.81345577 64.1953125 83.19726562 C64.15241605 91.7984254 64.08414766 100.39914538 64 109 C61.69 108.34 59.38 107.68 57 107 C56.67 85.22 56.34 63.44 56 41 C53.36 39.68 50.72 38.36 48 37 C46.40950556 36.13808535 44.82454827 35.26571161 43.25 34.375 C40.53206189 32.84004934 37.80135043 31.37713446 35 30 C34.34 29.67 33.68 29.34 33 29 C33 28.34 33 27.68 33 27 C32.20464844 26.78085938 31.40929687 26.56171875 30.58984375 26.3359375 C25.91886591 24.59766283 21.83771474 22.16539344 17.5625 19.625 C15.91803933 18.65873403 14.27350921 17.69258626 12.62890625 16.7265625 C11.84660645 16.26282227 11.06430664 15.79908203 10.25830078 15.32128906 C8.17777079 14.10401032 6.07619166 12.93605266 3.96484375 11.7734375 C1 10 1 10 0 8 C-0.13415472 5.3276379 -0.04318541 2.67749512 0 0 Z " fill="#A1DCDC" transform="translate(75,121)"/>
<path d="M0 0 C0.287803 3.05071175 0.4472872 5.96060262 0 9 C-2.4223468 11.10361696 -3.78245634 12 -7 12 C-7 12.66 -7 13.32 -7 14 C-8.95585325 15.00484204 -10.91476237 16.00373805 -12.875 17 C-13.96554688 17.556875 -15.05609375 18.11375 -16.1796875 18.6875 C-19 20 -19 20 -21 20 C-21 20.66 -21 21.32 -21 22 C-21.53625 22.25652344 -22.0725 22.51304687 -22.625 22.77734375 C-29.62408396 26.19630417 -36.39531348 29.97526152 -43.16796875 33.81640625 C-43.8026709 34.17621582 -44.43737305 34.53602539 -45.09130859 34.90673828 C-46.39113834 35.65125575 -47.68557796 36.40524522 -48.97509766 37.16748047 C-53.79399472 40 -53.79399472 40 -56 40 C-55.99111755 40.82019119 -55.98223511 41.64038239 -55.9730835 42.48542786 C-55.89297512 50.2104359 -55.8320551 57.93524292 -55.79275131 65.66055775 C-55.7718655 69.63236504 -55.7435306 73.60382949 -55.69824219 77.57543945 C-55.65481855 81.4074459 -55.63087038 85.23912235 -55.62049103 89.07135582 C-55.61309327 90.53424972 -55.59864711 91.99712531 -55.57707977 93.45987892 C-55.54808981 95.50726132 -55.54404181 97.55327586 -55.54589844 99.60083008 C-55.53701599 100.76665115 -55.52813354 101.93247223 -55.51898193 103.13362122 C-56 106 -56 106 -57.84088135 107.89994812 C-60 109 -60 109 -63 109 C-63.0926133 99.53386021 -63.1637206 90.06787597 -63.20724869 80.60138226 C-63.22813834 76.20585332 -63.25648066 71.81063395 -63.30175781 67.4152832 C-63.34516713 63.1747972 -63.36912673 58.93460925 -63.37950897 54.69391823 C-63.38690925 53.07472858 -63.40136017 51.45555555 -63.42292023 49.83649254 C-63.45189025 47.57121701 -63.45595889 45.30717852 -63.45410156 43.04174805 C-63.46298401 41.75157272 -63.47186646 40.4613974 -63.48101807 39.13212585 C-63 36 -63 36 -61.09661865 34.05989075 C-59 33 -59 33 -57 33 C-57 32.34 -57 31.68 -57 31 C-55.74123047 30.34257812 -55.74123047 30.34257812 -54.45703125 29.671875 C-46.53595966 25.50560437 -38.71229055 21.18340643 -30.9375 16.75 C-30.04587158 16.24307617 -29.15424316 15.73615234 -28.2355957 15.21386719 C-24.64067706 13.1549685 -21.12206581 11.08185589 -17.6796875 8.7734375 C-14.53168914 6.69006832 -11.33837606 5.34151927 -7.85546875 3.9296875 C-5.82149463 3.14242792 -5.82149463 3.14242792 -5 1 C-2 0 -2 0 0 0 Z " fill="#7BAAAB" transform="translate(203,121)"/>
<path d="M0 0 C4.62609198 -0.3227506 7.28026121 0.15549386 11 3 C11 3.66 11 4.32 11 5 C10.030625 5.53625 9.06125 6.0725 8.0625 6.625 C4.9074746 8.59982211 4.9074746 8.59982211 4.37890625 11.0390625 C4.15175207 13.01705123 4.06632947 15.01011588 4 17 C-0.75 15.125 -0.75 15.125 -3 14 C-3 10.37 -3 6.74 -3 3 C-2.01 2.67 -1.02 2.34 0 2 C0 1.34 0 0.68 0 0 Z " fill="#7CACAD" transform="translate(71,112)"/>
<path d="M0 0 C3.46941546 0.45822468 6.67395049 0.89131683 10 2 C10.08086147 3.79093191 10.13912702 5.58289628 10.1875 7.375 C10.22230469 8.37273437 10.25710937 9.37046875 10.29296875 10.3984375 C10.19628906 11.25695312 10.09960938 12.11546875 10 13 C7 15 7 15 4 15 C3.67 15.66 3.34 16.32 3 17 C3 14.03 3 11.06 3 8 C1.5459375 7.5978125 1.5459375 7.5978125 0.0625 7.1875 C-0.948125 6.795625 -1.95875 6.40375 -3 6 C-3.33 5.01 -3.66 4.02 -4 3 C-3.01 3 -2.02 3 -1 3 C-0.67 2.01 -0.34 1.02 0 0 Z " fill="#A0DBDA" transform="translate(201,112)"/>
<path d="M0 0 C0.66 0.33 1.32 0.66 2 1 C2.11576015 10.7268453 2.20464711 20.45352723 2.25906086 30.1809206 C2.28517464 34.69760245 2.32060447 39.21381366 2.37719727 43.73022461 C2.43145462 48.08743614 2.46140711 52.44419454 2.47438622 56.80171776 C2.4836375 58.46558964 2.50170321 60.12943623 2.52865028 61.79311562 C2.56485964 64.12084499 2.56994912 66.44669332 2.56762695 68.7746582 C2.58560333 69.46517776 2.60357971 70.15569733 2.62210083 70.86714172 C2.60127258 72.79194641 2.60127258 72.79194641 2 76 C-0.53547668 77.95158386 -0.53547668 77.95158386 -3 79 C-2.67 77.68 -2.34 76.36 -2 75 C-1.34 75 -0.68 75 0 75 C0 50.25 0 25.5 0 0 Z " fill="#436063" transform="translate(274,77)"/>
<path d="M0 0 C1.43489809 -0.13536774 2.87347107 -0.23217143 4.3125 -0.3125 C5.11300781 -0.37050781 5.91351563 -0.42851562 6.73828125 -0.48828125 C7.48464844 -0.32714844 8.23101562 -0.16601562 9 0 C10 1.66666667 11 3.33333333 12 5 C14.91206049 6.66468443 14.91206049 6.66468443 18.1875 7.8125 C19.27417969 8.23144531 20.36085938 8.65039062 21.48046875 9.08203125 C22.31191406 9.38496094 23.14335938 9.68789063 24 10 C24 11.32 24 12.64 24 14 C19.64350459 12.83118416 16.58931483 11.0814202 13.0078125 8.3671875 C9.87428118 6.23345995 6.4718524 4.7052246 3.0390625 3.11328125 C1 2 1 2 0 0 Z " fill="#80A7A9" transform="translate(98,291)"/>
<path d="M0 0 C4.61537637 1.31867896 8.33842923 2.84934608 12 6 C12.875 9.75 12.875 9.75 13 13 C13.53625 12.649375 14.0725 12.29875 14.625 11.9375 C17.81689475 10.67754155 19.72424145 11.09393913 23 12 C24.875 13.5625 24.875 13.5625 26 15 C23.69 14.34 21.38 13.68 19 13 C19 13.66 19 14.32 19 15 C16.36 15.33 13.72 15.66 11 16 C10.67 13.69 10.34 11.38 10 9 C9.01 8.67 8.02 8.34 7 8 C7.33 7.01 7.66 6.02 8 5 C6.68 5 5.36 5 4 5 C1.75 2.5 1.75 2.5 0 0 Z " fill="#466164" transform="translate(192,30)"/>
<path d="M0 0 C0.66 0.33 1.32 0.66 2 1 C1.34 3.31 0.68 5.62 0 8 C0.66 8.33 1.32 8.66 2 9 C1.67 10.65 1.34 12.3 1 14 C3.475 14.99 3.475 14.99 6 16 C6 16.66 6 17.32 6 18 C2.59687262 16.94124926 -0.01353231 15.99097846 -3 14 C-3.3984375 11.25 -3.3984375 11.25 -3.375 8 C-3.38273437 6.9275 -3.39046875 5.855 -3.3984375 4.75 C-3.26695313 3.8425 -3.13546875 2.935 -3 2 C-2.01 1.34 -1.02 0.68 0 0 Z " fill="#8AB5B8" transform="translate(78,265)"/>
<path d="M0 0 C2.40145644 1.28449996 3.97571166 2.34531425 5.6875 4.4375 C4.3675 4.7675 3.0475 5.0975 1.6875 5.4375 C1.6875 4.7775 1.6875 4.1175 1.6875 3.4375 C0.6975 3.7675 -0.2925 4.0975 -1.3125 4.4375 C-3.64549825 4.47704234 -5.97958189 4.48151732 -8.3125 4.4375 C-8.9725 5.7575 -9.6325 7.0775 -10.3125 8.4375 C-13.2825 7.9425 -13.2825 7.9425 -16.3125 7.4375 C-11.60836344 3.32138051 -6.47265143 -1.09912949 0 0 Z " fill="#6A8B90" transform="translate(69.3125,41.5625)"/>
<path d="M0 0 C1.703125 1.55859375 1.703125 1.55859375 3 3 C2.39671875 3.12117187 1.7934375 3.24234375 1.171875 3.3671875 C0.37265625 3.53476563 -0.4265625 3.70234375 -1.25 3.875 C-2.43335938 4.11863281 -2.43335938 4.11863281 -3.640625 4.3671875 C-5.96831144 4.99150075 -7.89031952 5.84838542 -10 7 C-10 6.01 -10 5.02 -10 4 C-11.32 3.67 -12.64 3.34 -14 3 C-8.91542993 -0.42430229 -6.20249404 -1.78918097 0 0 Z " fill="#7AA4A6" transform="translate(144,1)"/>
<path d="M0 0 C-0.55774272 3.23490776 -1.37211508 4.97855006 -4 7 C-4.99 7 -5.98 7 -7 7 C-7.33 7.99 -7.66 8.98 -8 10 C-10.97 10 -13.94 10 -17 10 C-16.01 9.01 -15.02 8.02 -14 7 C-13.01 7 -12.02 7 -11 7 C-11 6.34 -11 5.68 -11 5 C-9.54462432 4.16151196 -8.08559627 3.32936066 -6.625 2.5 C-5.40683594 1.80390625 -5.40683594 1.80390625 -4.1640625 1.09375 C-2 0 -2 0 0 0 Z " fill="#729A9C" transform="translate(31,62)"/>
<path d="M0 0 C-0.98562757 3.31529273 -1.65447419 4.74949379 -4.5 6.8125 C-7 8 -7 8 -9 8 C-9.33 8.66 -9.66 9.32 -10 10 C-11.65 9.67 -13.3 9.34 -15 9 C-12.59888822 6.36115438 -9.99444972 4.63586471 -6.9375 2.8125 C-5.62072266 2.01779297 -5.62072266 2.01779297 -4.27734375 1.20703125 C-2 0 -2 0 0 0 Z " fill="#6B8D8F" transform="translate(100,22)"/>
<path d="M0 0 C5.17935061 1.46828943 9.34373412 3.81491263 13.875 6.625 C14.90753906 7.25535156 14.90753906 7.25535156 15.9609375 7.8984375 C17.64391658 8.92692472 19.32242532 9.962721 21 11 C17.52176885 12.15941038 15.54104422 11.70820884 12 11 C12 10.34 12 9.68 12 9 C11.34 9 10.68 9 10 9 C10 8.01 10 7.02 10 6 C9.278125 5.731875 8.55625 5.46375 7.8125 5.1875 C5.01528026 4.00645167 2.53580025 2.66638302 0 1 C0 0.67 0 0.34 0 0 Z " fill="#59797C" transform="translate(171,18)"/>
<path d="M0 0 C-2.39509338 2.89932357 -4.31245243 3.50168276 -8 4 C-8 4.66 -8 5.32 -8 6 C-9.98 6.66 -11.96 7.32 -14 8 C-14.33 7.01 -14.66 6.02 -15 5 C-9.83783423 1.24569762 -6.43985624 -0.67081836 0 0 Z " fill="#5A777B" transform="translate(198,281)"/>
<path d="M0 0 C0.33 0 0.66 0 1 0 C1 2.97 1 5.94 1 9 C-4.05255964 8.36843005 -8.29593201 6.86540627 -13 5 C-13 4.34 -13 3.68 -13 3 C-11.88625 3.2475 -11.88625 3.2475 -10.75 3.5 C-6.91352313 4.19754125 -3.71526871 4.06150535 0 3 C0 2.01 0 1.02 0 0 Z " fill="#97C9CA" transform="translate(210,262)"/>
<path d="M0 0 C0 0.66 0 1.32 0 2 C-1.32 2.33 -2.64 2.66 -4 3 C-4 4.65 -4 6.3 -4 8 C-5.65 7.67 -7.3 7.34 -9 7 C-9 9.31 -9 11.62 -9 14 C-9.33 14 -9.66 14 -10 14 C-10.49054666 10.87276503 -10.69572611 8.10480755 -10 5 C-7.28984721 2.28984721 -3.92265524 0 0 0 Z " fill="#6E9597" transform="translate(85,31)"/>
<path d="M0 0 C-2.36797991 2.61724095 -4.89600354 4.32861729 -8 6 C-8.66 6 -9.32 6 -10 6 C-10.1875 3.625 -10.1875 3.625 -10 1 C-6.1496895 -1.56687367 -4.41430237 -0.83288724 0 0 Z " fill="#5F7C7E" transform="translate(222,267)"/>
<path d="M0 0 C0.99 0.33 1.98 0.66 3 1 C3 1.66 3 2.32 3 3 C4.98 3.66 6.96 4.32 9 5 C9 5.66 9 6.32 9 7 C9.66 7 10.32 7 11 7 C11 7.66 11 8.32 11 9 C5.68972746 7.53967505 1.53669968 5.01679014 -3 2 C-2.01 1.34 -1.02 0.68 0 0 Z " fill="#739C9F" transform="translate(87,282)"/>
<path d="M0 0 C0.33 0.66 0.66 1.32 1 2 C2.98 1.34 4.96 0.68 7 0 C7.33 1.65 7.66 3.3 8 5 C4.06225823 5.36630156 2.43460229 5.30233203 -0.875 3 C-1.57625 2.34 -2.2775 1.68 -3 1 C-2.01 0.67 -1.02 0.34 0 0 Z " fill="#82AEB3" transform="translate(59,266)"/>
<path d="M0 0 C0.99 0.66 1.98 1.32 3 2 C3 3.32 3 4.64 3 6 C3.66 6 4.32 6 5 6 C5 6.66 5 7.32 5 8 C0.49197399 6.74194623 -2.4912812 5.09592835 -6 2 C-4.02 2 -2.04 2 0 2 C0 1.34 0 0.68 0 0 Z " fill="#7AA2A6" transform="translate(34,249)"/>
<path d="M0 0 C6.625 -0.25 6.625 -0.25 10 2 C11.1875 4.625 11.1875 4.625 12 7 C7.69235185 5.43358249 3.93828536 3.31663844 0 1 C0 0.67 0 0.34 0 0 Z " fill="#769D9F" transform="translate(13,242)"/>
<path d="M0 0 C0 0.66 0 1.32 0 2 C-1.70719358 2.97075713 -3.41479343 3.94081081 -5.125 4.90625 C-6.68253746 5.81481352 -8.19254464 6.80427429 -9.6875 7.8125 C-12.4298091 9.22071278 -13.16547513 8.87721085 -16 8 C-15.24074219 7.59007812 -14.48148437 7.18015625 -13.69921875 6.7578125 C-12.70535156 6.21898437 -11.71148437 5.68015625 -10.6875 5.125 C-9.20830078 4.32449219 -9.20830078 4.32449219 -7.69921875 3.5078125 C-1.41968912 0 -1.41968912 0 0 0 Z " fill="#5A7A7D" transform="translate(116,13)"/>
<path d="M0 0 C0 0.66 0 1.32 0 2 C-0.99 2 -1.98 2 -3 2 C-3.061875 2.61875 -3.12375 3.2375 -3.1875 3.875 C-4 6 -4 6 -6.5625 7.25 C-7.366875 7.4975 -8.17125 7.745 -9 8 C-9.33 7.34 -9.66 6.68 -10 6 C-7.35570758 3.077361 -4.105808 0 0 0 Z " fill="#709496" transform="translate(14,72)"/>
<path d="M0 0 C1.45792884 -0.05399736 2.91642712 -0.09279177 4.375 -0.125 C5.18710938 -0.14820313 5.99921875 -0.17140625 6.8359375 -0.1953125 C9 0 9 0 11 2 C10.67 2.99 10.34 3.98 10 5 C9.34 4.34 8.68 3.68 8 3 C6.824375 2.835 5.64875 2.67 4.4375 2.5 C3.303125 2.335 2.16875 2.17 1 2 C0.67 1.34 0.34 0.68 0 0 Z " fill="#8AB9BA" transform="translate(98,291)"/>
<path d="M0 0 C2.625 2.375 2.625 2.375 5 5 C5 5.66 5 6.32 5 7 C0.56909529 5.79157144 -1.98112756 4.48331435 -5 1 C-2 0 -2 0 0 0 Z " fill="#6C8E91" transform="translate(51,260)"/>
<path d="M0 0 C-0.3125 1.875 -0.3125 1.875 -1 4 C-4 6 -4 6 -6.6875 5.625 C-7.450625 5.41875 -8.21375 5.2125 -9 5 C-2.87096774 0 -2.87096774 0 0 0 Z " fill="#69898C" transform="translate(31,62)"/>
<path d="M0 0 C0.99 0.33 1.98 0.66 3 1 C1.37829621 2.00533667 -0.24747237 3.00411907 -1.875 4 C-3.23238281 4.8353125 -3.23238281 4.8353125 -4.6171875 5.6875 C-7 7 -7 7 -9 7 C-9 6.01 -9 5.02 -9 4 C-8.34 4 -7.68 4 -7 4 C-6.67 3.34 -6.34 2.68 -6 2 C-4.34178227 1.62690101 -2.67422986 1.29299023 -1 1 C-0.67 0.67 -0.34 0.34 0 0 Z " fill="#4F696D" transform="translate(266,240)"/>
<path d="M0 0 C6.52307692 0.61538462 6.52307692 0.61538462 8.9375 2.5625 C9.288125 3.036875 9.63875 3.51125 10 4 C7.33438378 4.98726527 6.09873015 5.0275526 3.3125 4.25 C1 3 1 3 0 0 Z " fill="#68898C" transform="translate(137,0)"/>
<path d="M0 0 C4.43090471 1.20842856 6.98112756 2.51668565 10 6 C9.67 6.99 9.34 7.98 9 9 C8.34 8.67 7.68 8.34 7 8 C7.33 7.01 7.66 6.02 8 5 C6.68 5 5.36 5 4 5 C1.75 2.5 1.75 2.5 0 0 Z " fill="#5D7C81" transform="translate(192,30)"/>
<path d="M0 0 C0.66 0.33 1.32 0.66 2 1 C2 1.66 2 2.32 2 3 C1.01 3.33 0.02 3.66 -1 4 C-1.33 4.66 -1.66 5.32 -2 6 C-4.31 6 -6.62 6 -9 6 C-9 5.34 -9 4.68 -9 4 C-8.43410156 3.79503906 -7.86820312 3.59007812 -7.28515625 3.37890625 C-6.55167969 3.10949219 -5.81820312 2.84007812 -5.0625 2.5625 C-4.33160156 2.29566406 -3.60070312 2.02882813 -2.84765625 1.75390625 C-1.01694322 1.14613052 -1.01694322 1.14613052 0 0 Z " fill="#87B7B7" transform="translate(109,18)"/>
<path d="M0 0 C1.65 0 3.3 0 5 0 C2.20283196 3.29078593 -1.19528578 5.06305458 -5 7 C-5.66 6.67 -6.32 6.34 -7 6 C-6.030625 5.38125 -5.06125 4.7625 -4.0625 4.125 C-0.97164638 2.34321154 -0.97164638 2.34321154 0 0 Z " fill="#4B6267" transform="translate(243,252)"/>
<path d="M0 0 C0.33 1.32 0.66 2.64 1 4 C-2.465 5.485 -2.465 5.485 -6 7 C-5.67 5.35 -5.34 3.7 -5 2 C-3.35 2.33 -1.7 2.66 0 3 C0 2.01 0 1.02 0 0 Z " fill="#5E8082" transform="translate(74,266)"/>
<path d="M0 0 C5.53846154 0.61538462 5.53846154 0.61538462 7.875 2.5625 C8.431875 3.2740625 8.431875 3.2740625 9 4 C6.69 3.34 4.38 2.68 2 2 C2 2.66 2 3.32 2 4 C1.01 3.67 0.02 3.34 -1 3 C-0.67 2.01 -0.34 1.02 0 0 Z " fill="#526F72" transform="translate(209,41)"/>
<path d="M0 0 C1.25 2.5625 1.25 2.5625 2 5 C-1.77545388 3.90931332 -4.47043472 3.0916909 -7 0 C-3.87822605 -1.04059132 -2.92916561 -1.32284898 0 0 Z " fill="#6D9295" transform="translate(134,308)"/>
<path d="M0 0 C2.475 0.99 2.475 0.99 5 2 C3.35 3.65 1.7 5.3 0 7 C0 4.69 0 2.38 0 0 Z " fill="#A1D5D4" transform="translate(76,38)"/>
<path d="M0 0 C3.0831351 1.19899698 6.06279492 2.47700477 9 4 C9 4.66 9 5.32 9 6 C6.03 5.505 6.03 5.505 3 5 C3 4.01 3 3.02 3 2 C2.01 1.67 1.02 1.34 0 1 C0 0.67 0 0.34 0 0 Z " fill="#547274" transform="translate(156,9)"/>
<path d="M0 0 C2.97 0.33 5.94 0.66 9 1 C8.01 1.495 8.01 1.495 7 2 C7 2.66 7 3.32 7 4 C4.97954558 3.39816251 2.97888961 2.72693904 1 2 C0.67 1.34 0.34 0.68 0 0 Z " fill="#7BA2A5" transform="translate(39,257)"/>
<path d="M0 0 C0.99 0.33 1.98 0.66 3 1 C3.33 1.99 3.66 2.98 4 4 C1.29120665 5.35439668 -1.00933268 5.06501451 -4 5 C-3.34 4.360625 -2.68 3.72125 -2 3.0625 C0.11602431 1.35917681 0.11602431 1.35917681 0 0 Z " fill="#6C9396" transform="translate(8,156)"/>
<path d="M0 0 C0.66 0.33 1.32 0.66 2 1 C-2.296875 5.00390625 -2.296875 5.00390625 -4 6 C-6.203125 5.65234375 -6.203125 5.65234375 -8 5 C-6.71475739 4.13619741 -5.42157581 3.28419631 -4.125 2.4375 C-3.04605469 1.72400391 -3.04605469 1.72400391 -1.9453125 0.99609375 C-1.30335937 0.66738281 -0.66140625 0.33867188 0 0 Z " fill="#4D6D71" transform="translate(46,52)"/>
<path d="M0 0 C1.98 1.65 3.96 3.3 6 5 C2.30581799 5 0.22163822 3.71820705 -3 2 C-2.01 1.34 -1.02 0.68 0 0 Z " fill="#678993" transform="translate(106,293)"/>
<path d="M0 0 C0.99 0.33 1.98 0.66 3 1 C2.34 2.65 1.68 4.3 1 6 C-0.32 5.01 -1.64 4.02 -3 3 C-2.01 2.67 -1.02 2.34 0 2 C0 1.34 0 0.68 0 0 Z " fill="#87BAB9" transform="translate(211,43)"/>
<path d="M0 0 C0 0.66 0 1.32 0 2 C-0.66 2 -1.32 2 -2 2 C-2 2.99 -2 3.98 -2 5 C-3.65 4.67 -5.3 4.34 -7 4 C-3.17391304 0 -3.17391304 0 0 0 Z " fill="#5F7F81" transform="translate(123,9)"/>
</svg>
